<?xml version="1.0" encoding="UTF-8" standalone="no"?>
<!-- Created with Inkscape (http://www.inkscape.org/) -->

<svg
   xmlns:dc="http://purl.org/dc/elements/1.1/"
   xmlns:cc="http://creativecommons.org/ns#"
   xmlns:rdf="http://www.w3.org/1999/02/22-rdf-syntax-ns#"
   xmlns:svg="http://www.w3.org/2000/svg"
   xmlns="http://www.w3.org/2000/svg"
   xmlns:xlink="http://www.w3.org/1999/xlink"
   xmlns:sodipodi="http://sodipodi.sourceforge.net/DTD/sodipodi-0.dtd"
   xmlns:inkscape="http://www.inkscape.org/namespaces/inkscape"
   width="642.59998"
   height="642.59998"
   id="svg6600"
   version="1.1"
   inkscape:version="0.48.5 r10040"
   sodipodi:docname="logo.svg"
   inkscape:export-filename="/home/florent/TMPDOC/ESIRINGAME/logo.png"
   inkscape:export-xdpi="71.709999"
   inkscape:export-ydpi="71.709999">
  <defs
     id="defs6602">
    <linearGradient
       inkscape:collect="always"
       xlink:href="#linearGradient6222"
       id="linearGradient6489"
       gradientUnits="userSpaceOnUse"
       x1="2569.8914"
       y1="986.07092"
       x2="2905.7668"
       y2="986.0708"
       gradientTransform="translate(-2210.09,-810.8958)" />
    <linearGradient
       id="linearGradient6222">
      <stop
         style="stop-color:#ffffff;stop-opacity:1;"
         offset="0"
         id="stop6224" />
      <stop
         style="stop-color:#00a9ff;stop-opacity:0;"
         offset="1"
         id="stop6226" />
    </linearGradient>
    <linearGradient
       inkscape:collect="always"
       xlink:href="#linearGradient6222"
       id="linearGradient6487"
       gradientUnits="userSpaceOnUse"
       x1="2348.2598"
       y1="1645.2224"
       x2="2802.3223"
       y2="1057.7224"
       gradientTransform="translate(-3015.8043,-2045.1815)" />
    <linearGradient
       id="linearGradient6562">
      <stop
         style="stop-color:#ffffff;stop-opacity:1;"
         offset="0"
         id="stop6564" />
      <stop
         style="stop-color:#00a9ff;stop-opacity:0;"
         offset="1"
         id="stop6566" />
    </linearGradient>
    <radialGradient
       inkscape:collect="always"
       xlink:href="#linearGradient6212"
       id="radialGradient6485"
       gradientUnits="userSpaceOnUse"
       cx="2572.9473"
       cy="1288.9724"
       fx="2572.9473"
       fy="1288.9724"
       r="320"
       gradientTransform="translate(-2210.09,-810.8958)" />
    <linearGradient
       id="linearGradient6212">
      <stop
         style="stop-color:#000000;stop-opacity:0;"
         offset="0"
         id="stop6214" />
      <stop
         style="stop-color:#000000;stop-opacity:1;"
         offset="1"
         id="stop6216" />
    </linearGradient>
  </defs>
  <sodipodi:namedview
     id="base"
     pagecolor="#ffffff"
     bordercolor="#666666"
     borderopacity="1.0"
     inkscape:pageopacity="0.0"
     inkscape:pageshadow="2"
     inkscape:zoom="0.7"
     inkscape:cx="165.77707"
     inkscape:cy="182.64781"
     inkscape:document-units="px"
     inkscape:current-layer="layer1"
     showgrid="false"
     fit-margin-top="0"
     fit-margin-left="0"
     fit-margin-right="0"
     fit-margin-bottom="0"
     inkscape:window-width="943"
     inkscape:window-height="765"
     inkscape:window-x="232"
     inkscape:window-y="133"
     inkscape:window-maximized="0" />
  <metadata
     id="metadata6605">
    <rdf:RDF>
      <cc:Work
         rdf:about="">
        <dc:format>image/svg+xml</dc:format>
        <dc:type
           rdf:resource="http://purl.org/dc/dcmitype/StillImage" />
        <dc:title></dc:title>
      </cc:Work>
    </rdf:RDF>
  </metadata>
  <g
     inkscape:label="Layer 1"
     inkscape:groupmode="layer"
     id="layer1"
     transform="translate(-41.5572,-156.77648)">
    <rect
       style="fill:#0059ff;fill-opacity:1;stroke:none"
       id="rect6429"
       width="640"
       height="640"
       x="42.857151"
       y="158.07658" />
    <path
       inkscape:connector-curvature="0"
       style="fill:#ffffff"
       d="m 211.89686,524.03006 c -3.5759,0.081 -7.5258,0.3948 -11.8438,0.9063 -16.9034,2.0019 -29.2072,9.6125 -30.5937,18.9374 -0.5122,3.4473 -2.8608,6.25 -5.2187,6.25 -8.3352,1e-4 -27.64923,12.0019 -30.93763,19.2188 -2.5502,5.5976 -2.4525,9.7503 0.4063,17.6562 3.46883,9.5926 3.2348,10.8689 -3.4687,18.0626 -15.8474,17.0072 -18.4401,35.5499 -6.8438,49.0312 6.8913,8.0118 6.8919,8.0891 1.3438,15.5938 -6.0989,8.249 -13.0898,43.3551 -10.1563,51 2.2786,5.9378 7.7187,2.9798 7.7187,-4.1876 10e-5,-2.9161 1.9696,-6.9098 4.375,-8.9062 3.7713,-3.1297 4.3884,-1.8992 4.5313,9.0938 0.191,14.7838 5.599,32.2447 10.50003,33.8437 2.3649,0.7717 2.9193,-2.468 1.8125,-10.7187 -0.8706,-6.5011 -0.7927,-11.8126 0.1875,-11.8126 2.5956,0 13.5625,22.2839 13.5625,27.5626 0,5.9145 4.8416,5.7536 8.2188,-0.2813 1.5325,-2.737 4.1896,-3.8598 6.1874,-2.625 2.5831,1.5964 2.2107,3.5626 -1.4374,7.5937 -4.0235,4.4461 -10.2312,22.76357 -13.5626,37.81257 l 4.8126,0 c 1.8092,-6.5164 4.2991,-11.3421 6.6562,-10.4376 2.299,0.882 6.2,1.5938 8.6562,1.5938 3.0653,0 3.8562,1.787 3.0626,8.8438 l 6.5,0 c 2.9518,-20.7128 3.0177,-29.25 0.3124,-29.25 -1.8095,0 -4.1003,3.9391 -5.0624,8.75 -1.1247,5.623 -3.5171,8.75 -6.7188,8.75 -8.01,0 -8.9081,-2.9905 -4.2812,-14.2188 6.7112,-16.28647 11.1807,-18.35917 25.5312,-11.84377 13.6072,6.1785 24.189,7.0181 35.25,2.8126 6.5638,-2.4955 7.9614,-1.8268 11.75,5.5 2.3647,4.57237 7.6427,12.24917 11.7188,17.09367 2.6481,3.1468 5.0182,7.6208 6.75,12.4063 l 8.3124,0 c 0.099,-1.3213 0.3488,-2.1952 0.75,-2.3438 1.1695,-0.4327 -3.4651,-6.6053 -10.2812,-13.7188 -15.9441,-16.63997 -20.7204,-32.09407 -13.125,-42.34367 10.1268,-13.6649 14.1985,-11.2252 26.7188,15.875 13.0177,28.17627 13.7186,32.15217 6.4687,36.37497 -4.4744,2.606 -4.5052,2.9835 -0.3437,3.0625 9.992,0.1866 11.8497,-7.1424 5.8124,-23.0312 l -5.7187,-14.99997 6.9375,-6.9376 c 3.812,-3.8119 7.7374,-10.6392 8.7188,-15.1874 0.9813,-4.548 2.846,-10.8865 4.125,-14.0938 1.9802,-4.9657 2.8597,-4.0347 6,6.3125 8.2514,27.1903 19.3068,0.073 16.25,-39.8437 -1.0439,-13.631 -1.7816,-38.5682 -1.6563,-55.4063 0.2257,-30.0841 0.024,-31.0434 -11.5625,-54.5625 -6.4845,-13.1638 -11.7812,-25.0789 -11.7812,-26.5 -10e-5,-1.4214 -2.5933,-4.9244 -5.75,-7.7812 -4.5077,-4.0794 -9.0305,-4.8857 -21.125,-3.75 -8.4696,0.7953 -17.6147,2.3587 -20.3126,3.5 -3.6108,1.5273 -6.1303,-0.2338 -9.5,-6.75 -4.3909,-8.4912 -13.1608,-12.259 -28.6562,-11.9063 z m 16.25,5 9.0312,10.6875 9.0313,10.7188 12.7813,-4.5313 c 23.7495,-8.4299 24.8577,-7.7506 40.1874,23.9063 11.9792,24.7371 13.9241,31.3683 14.9688,51.0312 0.9651,18.1682 0.4007,22.5938 -2.9375,22.5938 -3.4953,-1e-4 -3.3522,3.1194 0.9687,19.6874 5.2545,20.1463 6.4631,43.247 2.9063,56 -1.8541,6.6486 -2.3596,6.2128 -7,-5.9374 -2.8328,-7.4175 -5.0023,-21.2565 -5.0313,-31.9376 -0.046,-21.8971 -2.2236,-31.9687 -6.875,-31.9687 -2.2958,0 -3.3124,11.7861 -3.3124,38.625 -10e-5,30.0346 -1.0432,40.515 -4.6876,47.0937 -4.6796,8.4482 -4.673,8.428 -6.7187,-16.0312 -1.1272,-13.4737 -3.4008,-33.3613 -5.0313,-44.1875 -2.0257,-13.3699 -2.0219,-22.7222 0,-29.1563 1.6373,-5.21 3.8976,-17.2006 5,-26.625 1.6249,-13.8949 1.234,-16.8568 -2.0312,-15.7812 -2.4358,0.8027 -5.403,9.5026 -7.5,22.0312 -3.9484,23.5909 -9.9396,37.1663 -20.625,46.625 -10.1583,8.9921 -3.2525,8.329 7.5,-0.7187 l 8.625,-7.25 1.8125,6.5313 c 0.9951,3.5958 2.6664,20.8446 3.7187,38.3437 l 1.9376,31.8125 -6.3126,-6.2812 c -3.4673,-3.4674 -8.1863,-6.3126 -10.4687,-6.3126 -6.5644,0 -21.6141,14.1094 -22.625,21.2188 -0.5053,3.5536 -2.4415,6.4688 -4.3125,6.4688 -1.8707,-1e-4 -4.3909,0.9848 -5.5938,2.1874 -1.2078,1.194 -3.6139,1.9989 -5.3437,1.7813 -10.663,-1.3404 -16.25,-3.2393 -16.25,-5.5313 0,-1.4417 -1.9696,-1.8605 -4.375,-0.9374 -3.1195,1.1969 -4.4055,-0.2861 -4.4375,-5.1876 -0.032,-4.9174 -0.7539,-5.7733 -2.5312,-2.9687 -3.477,5.4859 -16.984,-1.7838 -29.2188,-15.7187 -7.442,-8.476 -9.1451,-12.7689 -8.4375,-21.0938 0.8462,-9.9527 1.5808,-10.6037 15.4687,-13.7812 8.0183,-1.8343 20.2419,-6.2551 27.1876,-9.8438 10.2643,-5.303 15.7224,-6.2301 29.1562,-4.9688 16.0532,1.5074 16.2027,1.4674 4.875,-1.6562 -6.4145,-1.7689 -12.2214,-3.7378 -12.9062,-4.3438 -0.6849,-0.6061 2.0561,-4.7006 6.0937,-9.0937 13.8473,-15.0659 24.3176,-37.3974 30.0313,-64.0937 1.5608,-7.292 1.0585,-9.4688 -2.2188,-9.4688 -2.6547,0 -5.5757,5.2112 -7.7188,13.8438 -10.3431,41.6661 -37.4616,74.1314 -70.125,83.9374 -6.7564,2.0286 -6.5151,1.3324 3.4688,-9.7187 5.9206,-6.5533 13.004,-16.2548 15.75,-21.5625 5.8524,-11.3117 12.7625,-35.9015 12.8125,-45.625 0.064,-12.5611 -6.8084,-4.7742 -10.625,12.0312 -3.7184,16.3727 -16.0212,43.9111 -20.9687,46.9688 -1.4139,0.8738 -0.8397,-5.8754 1.2812,-15 2.9522,-12.6991 3.0478,-17.0862 0.4062,-18.7188 -4.2979,-2.6564 -7.806,2.582 -8.1562,12.1563 -0.1464,4.009 -2.0261,11.856 -4.1875,17.4687 l -3.9375,10.2188 -0.2188,-17.8438 c -0.2925,-23.5435 -2.965,-36.0937 -7.7187,-36.0937 -3.0242,0 -3.5463,5.2516 -2.3437,24.0625 1.3043,20.4063 0.4132,27.5871 -5.8438,47.375 l -7.375,23.3125 1.7812,-40.0937 c 1.5882,-36.046 1.2688,-40.0938 -3.06243,-40.0938 -3.2828,0 -4.8586,2.5667 -4.9376,8.0312 l -0.094,8.0313 -4.5937,-8.4687 c -5.9361,-10.9619 -1.7609,-26.3082 10.3124,-37.875 8.35173,-8.0017 8.43903,-8.4189 4.18763,-18.5938 -3.2381,-7.7496 -3.5783,-12.1204 -1.3126,-17.0938 3.3116,-7.2682 22.8928,-18.5624 32.1563,-18.5624 6.4644,-1e-4 10.8232,-4.7569 5.875,-6.4063 -1.9465,-0.6488 -0.9367,-3.8351 2.5625,-8.1563 4.9115,-6.0655 8.7701,-7.2567 26.9062,-8.2812 l 21.2191,-1.1875 z m -98.18753,147.1875 c 1.035,-0.033 1.0044,2.4191 -0.031,7.9375 -1.0441,5.5626 -3.3707,11.4712 -5.1562,13.125 -2.3618,2.1874 -2.7245,0.2638 -1.3438,-7.0937 1.0442,-5.5628 3.3395,-11.4716 5.125,-13.125 0.5905,-0.547 1.0613,-0.8327 1.4063,-0.8438 z m 116.78133,34.8438 c -2.1301,0.058 -5.0758,0.8756 -7.4688,2.1562 -3.1909,1.7077 -16.6957,3.2901 -30.0312,3.5 -18.8706,0.2989 -22.0052,0.8765 -14.0626,2.625 12.334,2.7151 42.9714,0.4052 51.0313,-3.8438 3.4901,-1.8395 4.4262,-3.5244 2.3437,-4.2187 -0.4778,-0.1593 -1.1024,-0.238 -1.8124,-0.2187 z m -88.5626,25.9374 c 0.3383,-0.024 1.1152,0.6247 2.375,1.875 1.9909,1.9781 2.8977,4.3211 2,5.2188 -0.8976,0.8975 -2.5301,-0.7182 -3.625,-3.5938 -0.8901,-2.3374 -1.1848,-3.4685 -0.75,-3.5 z"
       id="path6431" />
    <g
       transform="matrix(0.95522388,0,0,0.95522388,-1194.2804,235.24117)"
       id="g6433">
      <path
         inkscape:connector-curvature="0"
         id="path6435"
         d="m 1735.7143,492.71082 c -11.5676,-3.23311 -16.0364,-5.87114 -24.6609,-14.55797 -10.0159,-10.08819 -13.1575,-16.07386 -19.1599,-36.50496 -0.5656,-1.925 -1.9937,-6.65 -3.1736,-10.5 -1.1798,-3.85 -3.8599,-13.525 -5.9556,-21.5 -2.0957,-7.975 -4.9838,-18.775 -6.4181,-24 -3.3851,-12.3324 -3.9436,-14.48032 -8.7106,-33.5 -3.4329,-13.69682 -5.06,-18.09141 -11.3035,-30.52887 -6.5188,-12.98577 -11.0713,-20.30884 -16.4562,-26.47113 -0.9612,-1.1 -3.7533,-4.44631 -6.2046,-7.43625 -10.0874,-12.30366 -24.2753,-24.11028 -37.457,-31.17019 -19.0685,-10.21272 -25.29,-13.11642 -32.1163,-14.98918 -8.8031,-2.4151 -21.7485,-4.82805 -28.3837,-5.29058 -2.475,-0.17253 -8.775,-0.64984 -14,-1.06068 -5.9127,-0.46492 -12.5209,-0.31772 -17.5,0.38982 -4.4,0.62525 -11.825,1.58439 -16.5,2.13142 -4.675,0.54703 -10.75,1.62546 -13.5,2.39652 -6.2882,1.76311 -22.9575,5.18167 -31.5,6.46006 -3.575,0.53499 -10.325,1.55124 -15,2.25832 -10.5184,1.59087 -33.9646,1.69013 -44,0.18628 -17.6723,-2.64827 -43.1826,-20.08065 -49.5731,-33.87554 -3.7062,-8.00043 -7.4269,-22.24239 -7.4269,-28.42821 0,-11.80449 3.9829,-24.37283 10.9182,-34.45287 8.627,-12.53902 37.5599,-37.45279 61.5818,-53.02736 4.95,-3.20933 9.9,-6.46477 11,-7.23429 6.3392,-4.43478 16.0187,-10.61301 17.3975,-11.1045 0.8813,-0.3142 8.7749,-4.42329 17.5411,-9.1313 14.0904,-7.567394 32.5179,-16.135604 51.0614,-23.741974 8.7854,-3.6037 9.4368,-3.85251 16,-6.11204 3.3,-1.1361 9.375,-3.41491 13.5,-5.06403 4.125,-1.64912 9.9495,-3.796 12.9433,-4.77085 2.9938,-0.97485 10.6438,-4.35182 17,-7.50439 6.3562,-3.15257 14.8448,-6.70277 18.8635,-7.88935 9.2382,-2.72763 24.5751,-3.58763 37.6932,-2.11361 5.5,0.61801 11.8,1.29901 14,1.51334 18.1312,1.76635 43.389,10.25282 53.208,17.87758 7.0505,5.47498 8.1578,6.77604 12.1633,14.291 4.2521,7.97775 8.7681,11.45044 15.9993,12.30307 6.0417,0.71237 11.9143,3.7741 26.1294,13.622814 8.6367,5.98382 25.4872,16.46697 26.4688,16.46697 0.3655,0 2.0971,1.06593 3.8479,2.36873 1.7508,1.30281 5.4333,3.495 8.1833,4.87153 2.75,1.37654 8.375,4.37818 12.5,6.67031 6.7161,3.73193 14.5048,7.57569 26.5,13.07781 4.4411,2.03712 10.0147,7.54239 13.4262,13.26162 1.2303,2.0625 2.325,3.75 2.4327,3.75 0.1077,0 5.1335,2.0606 11.1684,4.57911 6.035,2.51851 13.4477,5.40826 16.4727,6.42167 3.025,1.0134 7.3907,2.77781 9.7017,3.92089 2.8503,1.40991 6.1404,2.07833 10.2297,2.07833 6.8152,0 10.886,1.41015 21.8852,7.58118 10.9856,6.16343 16.1583,10.04128 20.4148,15.30471 2.0523,2.53776 5.3732,6.41411 7.3797,8.61411 2.0066,2.2 4.8969,6.70765 6.4229,10.01699 2.6626,5.77421 2.7753,6.66189 2.7935,22 0.016,13.59473 -0.3509,17.52902 -2.456,26.32928 -1.3611,5.69044 -2.8921,11.09044 -3.402,12 -0.51,0.90955 -2.029,4.46334 -3.3757,7.89731 -1.3467,3.43398 -3.3118,7.48398 -4.3669,9 -1.0552,1.51603 -3.3807,5.68142 -5.1679,9.25642 -1.7873,3.575 -3.8645,7.19144 -4.6161,8.03654 -0.7516,0.84509 -2.3451,3.77009 -3.5411,6.5 -1.196,2.7299 -2.9824,6.11463 -3.9697,7.52161 -0.9873,1.40698 -3.1071,5.00698 -4.7106,8 -1.6036,2.99302 -4.333,7.91685 -6.0654,10.94185 -1.7324,3.025 -4.5514,8.2 -6.2644,11.5 -4.3494,8.37913 -9.1371,16.35907 -16.799,28 -3.62,5.5 -9.5093,14.78212 -13.0873,20.62693 -3.578,5.84481 -10.5554,16.08778 -15.5054,22.76215 -4.95,6.67438 -10.0277,13.59226 -11.2837,15.37307 -1.256,1.78082 -3.0462,4.13785 -3.9782,5.23785 -0.932,1.1 -4.3235,5.53278 -7.5368,9.85063 -12.1289,16.2984 -19.7456,25.45789 -28.7274,34.54601 -3.5893,3.63185 -7.1893,7.5069 -8,8.61123 -2.1117,2.87673 -10.8699,9.90583 -14.9421,11.99225 -4.0083,2.05364 -17.3581,5.49897 -21.0318,5.42791 -1.375,-0.0266 -5.425,-0.86589 -9,-1.8651 z m 19.6984,-5.54984 c 4.2908,-1.3678 9.0673,-3.3303 10.6143,-4.36112 3.8007,-2.53256 10.778,-9.25482 14.8489,-14.30616 1.8361,-2.27834 4.428,-5.0882 5.7598,-6.24412 4.7185,-4.09551 8.3682,-8.22378 15.119,-17.10169 2.9275,-3.85 5.5912,-7.225 5.9192,-7.5 0.7579,-0.63535 11.4327,-14.67008 16.0404,-21.08914 1.925,-2.68175 6.875,-9.41268 11,-14.95762 8.3648,-11.24427 11.5994,-15.99978 18.3327,-26.95324 2.5358,-4.125 5.0254,-7.99224 5.5325,-8.59388 0.507,-0.60163 1.7076,-2.62663 2.6679,-4.5 0.9603,-1.87336 2.0503,-3.63112 2.4223,-3.90612 1.6817,-1.24319 12.5081,-19.08763 16.3812,-27 1.4807,-3.025 4.4721,-8.425 6.6475,-12 2.1753,-3.575 5.2632,-9.05242 6.8619,-12.17204 1.5987,-3.11961 3.8624,-7.01408 5.0304,-8.65437 1.168,-1.64028 2.1236,-3.37581 2.1236,-3.85674 0,-0.48092 2.4228,-4.95509 5.384,-9.94259 2.9612,-4.98751 5.713,-10.14956 6.115,-11.47123 0.4019,-1.32167 1.5312,-3.30303 2.5095,-4.40303 0.9782,-1.1 2.7674,-4.475 3.9761,-7.5 1.2086,-3.025 2.7952,-6.63308 3.5259,-8.01795 0.7306,-1.38488 2.3475,-6.33488 3.5932,-11 1.8584,-6.96037 2.3003,-11.44214 2.4632,-24.98205 0.1855,-15.41888 0.049,-16.79672 -2.0888,-21.02851 -2.5369,-5.02255 -15.0874,-20.33152 -18.6802,-22.78583 -1.2639,-0.86335 -2.5235,-1.89121 -2.7991,-2.28413 -0.5617,-0.80064 -18.5446,-11.0972 -21.5605,-12.34497 -1.0661,-0.44108 -5.786,-1.14365 -10.4887,-1.56126 -5.9307,-0.52667 -10.0669,-1.51904 -13.5,-3.23902 -2.7223,-1.36385 -7.4246,-3.2758 -10.4496,-4.24878 -3.025,-0.97298 -6.625,-2.32936 -8,-3.01418 -1.375,-0.68481 -5.6362,-2.55031 -9.4692,-4.14554 -5.5031,-2.29026 -7.6621,-3.84155 -10.2627,-7.3741 -6.308,-8.56838 -8.7359,-10.58377 -17.2681,-14.33392 -8.1861,-3.598 -31.6876,-15.9802 -41,-21.60162 -2.475,-1.49402 -9,-5.36766 -14.5,-8.60808 -5.5,-3.24043 -12.7,-7.80055 -16,-10.13361 -14.1607,-10.011424 -21.7453,-13.977464 -27.909,-14.593854 -5.3772,-0.53773 -6.3469,-1.02229 -10.776,-5.3848 -2.6769,-2.63664 -5.7976,-6.71612 -6.9349,-9.0655 -5.4148,-11.18538 -15.7444,-18.12137 -36.2134,-24.31609 -16.3453,-4.94672 -43.5703,-8.47438 -58.0553,-7.52247 -12.6676,0.83247 -29.358,6.33538 -38.7927,12.79017 -1.4747,1.00893 -7.3247,3.36525 -13,5.23628 -5.6753,1.87103 -12.7937,4.49893 -15.8187,5.83978 -3.025,1.34084 -9.775,3.91599 -15,5.72254 -5.225,1.80655 -13.1,4.95045 -17.5,6.98645 -4.4,2.036 -12.9672,5.81245 -19.0381,8.39211 -6.0709,2.57967 -15.7459,7.297424 -21.5,10.483884 -15.5776,8.62655 -16.0361,8.87075 -21.6708,11.5419 -2.8649,1.35811 -7.5899,4.2077 -10.5,6.33239 -2.9101,2.12469 -7.6413,5.29079 -10.5137,7.03578 -15.9757,9.70527 -40.9178,29.10032 -53.6771,41.73956 -11.9791,11.86625 -14.5976,15.35049 -19.1528,25.48542 -3.5505,7.89951 -3.8224,9.17114 -3.8485,18 -0.024,8.09881 0.4498,10.92805 3.2117,19.18207 3.2884,9.82776 5.5173,13.26455 13.8222,21.31276 4.8265,4.67733 20.8739,14.51709 27.3671,16.7806 12.5616,4.37895 32.2088,4.66009 58,0.82995 13.1208,-1.94853 19.8121,-3.27586 38.5,-7.63719 12.3175,-2.87463 38.3829,-5.72216 47.3254,-5.1701 26.3965,1.62956 49.9464,6.53085 62.1244,12.9295 4.1526,2.1819 8.0162,4.34835 8.5859,4.81434 0.5696,0.46599 3.7753,2.2065 7.1236,3.86781 13.313,6.60524 31.8379,22.33851 42.8564,36.39813 10.0585,12.83454 12.281,16.28641 20.0749,31.17875 6.137,11.72633 8.4758,18.56238 13.0058,38.01338 1.5877,6.81692 6.5571,25.39061 10.3008,38.5 1.0209,3.575 2.6295,9.875 3.5747,14 1.8327,7.9987 10.8947,37.93307 13.4715,44.5 5.1409,13.10192 14.6492,24.18944 25.4871,29.72031 4.6158,2.35559 14.9715,5.58865 18.2679,5.70326 1.2091,0.042 5.7091,-1.04268 10,-2.41048 z"
         style="fill:#ffffff" />
      <text
         sodipodi:linespacing="125%"
         id="text6437"
         y="-586.02191"
         x="1453.6223"
         style="font-size:48px;font-style:normal;font-variant:normal;font-weight:normal;font-stretch:normal;line-height:125%;letter-spacing:0px;word-spacing:0px;fill:#ffffff;fill-opacity:1;stroke:none;font-family:Sans;-inkscape-font-specification:Newspaper"
         xml:space="preserve"
         transform="matrix(0.8906265,0.45473557,-0.45473557,0.8906265,0,0)"><tspan
           style="font-style:normal;font-variant:normal;font-weight:normal;font-stretch:normal;fill:#ffffff;font-family:Sans;-inkscape-font-specification:Clean"
           y="-586.02191"
           x="1453.6223"
           id="tspan6439"
           sodipodi:role="line" /><tspan
           id="tspan6441"
           style="font-style:italic;font-variant:normal;font-weight:bold;font-stretch:normal;fill:#ffffff;font-family:Century SchoolBook URW;-inkscape-font-specification:Century SchoolBook URW Bold Italic"
           y="-524.78387"
           x="1453.6223"
           sodipodi:role="line">in game</tspan></text>
      <g
         style="fill:#ffffff"
         transform="matrix(0.8906265,0.45473557,-0.45473557,0.8906265,1501.4664,-227.36592)"
         id="g6443">
        <path
           style="fill:#ffffff;fill-opacity:1;fill-rule:nonzero;stroke:none"
           id="path6445"
           d="m 192.77297,277.39755 c 1.82833,-2.32757 4.02996,-4.31782 6.59957,-5.97354 2.56399,-1.65292 5.42454,-2.9179 8.56283,-3.80621 3.13716,-0.87705 6.49191,-1.31558 10.06057,-1.31558 15.68808,0 25.57408,6.33617 29.66786,19.01695 l -59.07456,0 c 0.95886,-2.96006 2.35343,-5.59967 4.18373,-7.92162 z m 4.05189,47.5466 c -6.0174,-5.00091 -9.41037,-11.72782 -10.19551,-20.18355 l 91.22825,0 0.13718,-5.59967 c 0,-16.97611 -5.40795,-30.25284 -16.2129,-39.83862 -10.89518,-9.642 -25.70395,-14.47144 -44.43389,-14.47144 -18.56297,0 -33.46388,4.96718 -44.70272,14.89591 -11.15647,10.07772 -16.72921,23.24482 -16.72921,39.52378 0,16.41108 5.75172,29.58099 17.25629,39.51535 9.04268,7.75295 20.44085,12.41654 34.12069,14.07507 l 0,-22.32278 c -3.92343,-1.22844 -7.41535,-3.09219 -10.46818,-5.59405"
           inkscape:connector-curvature="0" />
        <path
           style="fill:#ffffff;fill-opacity:1;fill-rule:nonzero;stroke:none"
           id="path6447"
           d="m 377.61804,319.17019 c 0,-7.7389 -2.70679,-13.89235 -8.1094,-18.46598 -5.40262,-4.568 -15.90566,-9.56329 -31.49843,-14.98305 -11.32669,-3.87086 -16.9927,-7.77545 -16.9927,-11.71658 0,-2.24887 0.95746,-4.09856 2.87714,-5.54064 1.91603,-1.43927 4.22196,-2.16172 6.92875,-2.16172 5.66067,0 10.40971,3.13435 14.24206,9.40306 l 24.31134,-10.46003 c -7.92584,-13.59719 -20.03991,-20.39438 -36.33518,-20.39438 -11.06665,0 -20.4759,2.92633 -28.22605,8.76776 -7.58569,5.84985 -11.37615,13.24581 -11.37615,22.19066 0,6.76627 2.22356,12.29285 6.6676,16.58818 3.48742,3.38173 9.4961,6.76346 18.03363,10.14519 3.04946,1.19752 6.05591,2.3613 9.0261,3.48574 2.95388,1.13005 5.91873,2.29103 8.88132,3.48292 7.66891,3.67127 11.50463,7.61522 11.50463,11.84308 0,0.61282 -0.088,1.16941 -0.15714,1.74006 8.53528,0 18.68721,0 29.9588,0 0.15939,-1.27904 0.26368,-2.58338 0.26368,-3.92427"
           inkscape:connector-curvature="0" />
        <path
           style="fill:#ffffff;fill-opacity:1;fill-rule:nonzero;stroke:none"
           id="path6449"
           d="m 428.81033,247.70412 -29.40108,0 0,75.39034 c 9.41627,0 19.28794,0 29.40108,0 l 0,-75.39034"
           inkscape:connector-curvature="0" />
        <path
           style="fill:#ffffff;fill-opacity:1;fill-rule:nonzero;stroke:none"
           id="path6451"
           d="m 486.85603,297.25783 c 0,-19.58198 8.02001,-29.37016 24.04597,-29.37016 5.32138,0 10.76644,1.61918 16.34643,4.86317 l 13.45383,-21.77463 c -8.4473,-4.08168 -16.55164,-6.12534 -24.30178,-6.12534 -5.84143,0 -10.90137,0.88268 -15.16578,2.64242 -4.18289,1.68945 -8.97859,4.82381 -14.37867,9.40868 l 0,-9.19785 -29.4067,0 0,75.39034 c 9.83877,0 19.70285,0 29.4067,0 l 0,-25.83663"
           inkscape:connector-curvature="0" />
        <path
           style="fill:#ffffff;fill-opacity:1;fill-rule:nonzero;stroke:none"
           id="path6453"
           d="m 415.00765,235.07394 c 4.27143,0 7.88423,-1.45333 10.8249,-4.36561 3.01966,-2.91228 4.52078,-6.43175 4.52078,-10.56685 0,-4.12666 -1.50112,-7.62084 -4.52078,-10.46284 -3.01207,-2.91509 -6.65776,-4.37123 -10.93144,-4.37123 -4.20144,0 -7.81621,1.45614 -10.83053,4.37123 -3.0087,2.90947 -4.51516,6.36429 -4.51516,10.36164 0,4.19976 1.50646,7.75577 4.51516,10.66805 3.01432,2.91228 6.66338,4.36561 10.93707,4.36561"
           inkscape:connector-curvature="0" />
        <path
           style="fill:#ffffff;fill-opacity:1;fill-rule:nonzero;stroke:none"
           id="path6455"
           d="m 468.79203,222.93288 c 0,7.08674 -5.74303,12.83539 -12.83258,12.83539 -7.08673,0 -12.83539,-5.74865 -12.83539,-12.83539 0,-7.08954 5.74866,-12.83257 12.83539,-12.83257 7.08955,0 12.83258,5.74303 12.83258,12.83257"
           inkscape:connector-curvature="0" />
        <path
           style="fill:#ffffff;fill-opacity:1;fill-rule:nonzero;stroke:none"
           id="path6457"
           d="m 386.82882,225.60341 c 0,6.05225 -4.90421,10.94634 -10.95337,10.94634 -6.0427,0 -10.94016,-4.89409 -10.94016,-10.94634 0,-6.04101 4.89746,-10.94072 10.94016,-10.94072 6.04916,0 10.95337,4.89971 10.95337,10.94072"
           inkscape:connector-curvature="0" />
        <path
           style="fill:#ffffff;fill-opacity:1;fill-rule:nonzero;stroke:none"
           id="path6459"
           d="m 351.62651,225.31106 c 0,2.0296 -1.64701,3.67689 -3.67857,3.67689 -2.03354,0 -3.68196,-1.64729 -3.68196,-3.67689 0,-2.02679 1.64842,-3.6769 3.68196,-3.6769 2.03156,0 3.67857,1.65011 3.67857,3.6769"
           inkscape:connector-curvature="0" />
        <path
           style="fill:#ffffff;fill-opacity:1;fill-rule:nonzero;stroke:none"
           id="path6461"
           d="m 491.30316,222.35099 c 0,2.67615 -2.16453,4.84349 -4.84349,4.84349 -2.67053,0 -4.84349,-2.16734 -4.84349,-4.84349 0,-2.67615 2.17296,-4.84349 4.84349,-4.84349 2.67896,0 4.84349,2.16734 4.84349,4.84349"
           inkscape:connector-curvature="0" />
      </g>
    </g>
    <rect
       y="170.07683"
       x="54.857395"
       height="615.99939"
       width="615.99939"
       id="rect6463"
       style="fill:none;stroke:#ffffff;stroke-width:4.89618063;stroke-miterlimit:4;stroke-opacity:1;stroke-dasharray:none" />
    <g
       transform="translate(-2261.6525,226.60417)"
       id="g6465"
       style="stroke:#ffffff;stroke-opacity:1">
      <path
         style="opacity:0.66814162;fill:none;stroke:#ffffff;stroke-width:2.5999999;stroke-linecap:butt;stroke-linejoin:miter;stroke-miterlimit:4;stroke-opacity:1;stroke-dasharray:20.79999924, 20.79999924;stroke-dashoffset:0"
         d="m 2624.5097,571.4723 0,-639.999994"
         id="path6467"
         inkscape:connector-curvature="0" />
      <path
         style="opacity:0.66814162;fill:none;stroke:#ffffff;stroke-width:2.5999999;stroke-linecap:butt;stroke-linejoin:miter;stroke-miterlimit:4;stroke-opacity:1;stroke-dasharray:20.79999924, 20.79999924;stroke-dashoffset:0"
         d="m 2784.5097,571.4723 0,-639.999994"
         id="path6469"
         inkscape:connector-curvature="0" />
      <path
         style="opacity:0.66814162;fill:none;stroke:#ffffff;stroke-width:2.5999999;stroke-linecap:butt;stroke-linejoin:miter;stroke-miterlimit:4;stroke-opacity:1;stroke-dasharray:20.79999924, 20.79999924;stroke-dashoffset:0"
         d="m 2304.5097,411.4723 640,0"
         id="path6471"
         inkscape:connector-curvature="0" />
      <path
         style="opacity:0.66814162;fill:none;stroke:#ffffff;stroke-width:2.5999999;stroke-linecap:butt;stroke-linejoin:miter;stroke-miterlimit:4;stroke-opacity:1;stroke-dasharray:20.79999924, 20.79999924;stroke-dashoffset:0"
         d="m 2944.5097,251.4723 -640,0"
         id="path6473"
         inkscape:connector-curvature="0" />
      <path
         style="opacity:0.66814162;fill:none;stroke:#ffffff;stroke-width:2.5999999;stroke-linecap:butt;stroke-linejoin:miter;stroke-miterlimit:4;stroke-opacity:1;stroke-dasharray:20.79999924, 20.79999924;stroke-dashoffset:0"
         d="m 2944.5097,91.472306 -640,0"
         id="path6475"
         inkscape:connector-curvature="0" />
      <path
         style="opacity:0.66814162;fill:none;stroke:#ffffff;stroke-width:2.5999999;stroke-linecap:butt;stroke-linejoin:miter;stroke-miterlimit:4;stroke-opacity:1;stroke-dasharray:20.79999924, 20.79999924;stroke-dashoffset:0"
         d="m 2464.5097,-68.527694 0,639.999994"
         id="path6477"
         inkscape:connector-curvature="0" />
    </g>
    <rect
       y="158.07658"
       x="42.857151"
       height="640"
       width="640"
       id="rect6479"
       style="opacity:0.44690282;fill:url(#radialGradient6485);fill-opacity:1;stroke:none" />
    <rect
       style="opacity:0.15929206;fill:url(#linearGradient6487);fill-opacity:1;stroke:none"
       id="rect6481"
       width="640"
       height="640"
       x="-762.85712"
       y="-1076.2091" />
    <path
       id="path6483"
       d="m 365.87876,158.07297 209.3124,639.99996 107.6563,0 0,-639.99996 -316.9687,0 z"
       style="opacity:0.2964602;fill:url(#linearGradient6489);fill-opacity:1;stroke:none"
       inkscape:connector-curvature="0" />
  </g>
</svg>
